<mxfile host="app.diagrams.net" agent="Mozilla/5.0 (Windows NT 10.0; Win64; x64; rv:136.0) Gecko/20100101 Firefox/136.0" version="26.1.3">
  <diagram id="C5RBs43oDa-KdzZeNtuy" name="Page-1">
    <mxGraphModel dx="1434" dy="782" grid="1" gridSize="10" guides="1" tooltips="1" connect="1" arrows="1" fold="1" page="1" pageScale="1" pageWidth="827" pageHeight="1169" math="0" shadow="0">
      <root>
        <mxCell id="WIyWlLk6GJQsqaUBKTNV-0" />
        <mxCell id="WIyWlLk6GJQsqaUBKTNV-1" parent="WIyWlLk6GJQsqaUBKTNV-0" />
        <mxCell id="c-h7-R5tRwGiWkRV6ZdH-1" value="" style="edgeStyle=orthogonalEdgeStyle;rounded=0;orthogonalLoop=1;jettySize=auto;html=1;" edge="1" parent="WIyWlLk6GJQsqaUBKTNV-1" source="D-wpHk_Uut0GPWnDHKZU-0" target="D-wpHk_Uut0GPWnDHKZU-4">
          <mxGeometry relative="1" as="geometry" />
        </mxCell>
        <mxCell id="D-wpHk_Uut0GPWnDHKZU-0" value="&lt;div&gt;Choose option (1-4)&lt;/div&gt;&lt;div&gt;Cashier&lt;/div&gt;&lt;div&gt;Inventory&lt;/div&gt;&lt;div&gt;Reports&lt;/div&gt;&lt;div&gt;Exit Program&lt;/div&gt;" style="rounded=1;whiteSpace=wrap;html=1;" parent="WIyWlLk6GJQsqaUBKTNV-1" vertex="1">
          <mxGeometry x="280" y="50" width="230" height="80" as="geometry" />
        </mxCell>
        <mxCell id="D-wpHk_Uut0GPWnDHKZU-5" style="edgeStyle=orthogonalEdgeStyle;rounded=0;orthogonalLoop=1;jettySize=auto;html=1;exitX=0.5;exitY=0;exitDx=0;exitDy=0;entryX=0.5;entryY=1;entryDx=0;entryDy=0;" parent="WIyWlLk6GJQsqaUBKTNV-1" source="D-wpHk_Uut0GPWnDHKZU-4" target="D-wpHk_Uut0GPWnDHKZU-0" edge="1">
          <mxGeometry relative="1" as="geometry" />
        </mxCell>
        <mxCell id="D-wpHk_Uut0GPWnDHKZU-7" style="edgeStyle=orthogonalEdgeStyle;rounded=0;orthogonalLoop=1;jettySize=auto;html=1;exitX=1;exitY=0.5;exitDx=0;exitDy=0;entryX=0.5;entryY=0;entryDx=0;entryDy=0;" parent="WIyWlLk6GJQsqaUBKTNV-1" source="D-wpHk_Uut0GPWnDHKZU-4" target="c-h7-R5tRwGiWkRV6ZdH-7" edge="1">
          <mxGeometry relative="1" as="geometry">
            <mxPoint x="490" y="480" as="targetPoint" />
            <Array as="points">
              <mxPoint x="450" y="350" />
              <mxPoint x="445" y="350" />
            </Array>
          </mxGeometry>
        </mxCell>
        <mxCell id="D-wpHk_Uut0GPWnDHKZU-8" style="edgeStyle=orthogonalEdgeStyle;rounded=0;orthogonalLoop=1;jettySize=auto;html=1;exitX=1;exitY=0;exitDx=0;exitDy=0;" parent="WIyWlLk6GJQsqaUBKTNV-1" source="D-wpHk_Uut0GPWnDHKZU-4" target="D-wpHk_Uut0GPWnDHKZU-14" edge="1">
          <mxGeometry relative="1" as="geometry">
            <mxPoint x="620" y="320" as="targetPoint" />
          </mxGeometry>
        </mxCell>
        <mxCell id="D-wpHk_Uut0GPWnDHKZU-9" style="edgeStyle=orthogonalEdgeStyle;rounded=0;orthogonalLoop=1;jettySize=auto;html=1;exitX=0;exitY=0;exitDx=0;exitDy=0;entryX=0.5;entryY=0;entryDx=0;entryDy=0;" parent="WIyWlLk6GJQsqaUBKTNV-1" source="D-wpHk_Uut0GPWnDHKZU-4" target="D-wpHk_Uut0GPWnDHKZU-15" edge="1">
          <mxGeometry relative="1" as="geometry">
            <mxPoint x="150" y="310" as="targetPoint" />
          </mxGeometry>
        </mxCell>
        <mxCell id="D-wpHk_Uut0GPWnDHKZU-10" style="edgeStyle=orthogonalEdgeStyle;rounded=0;orthogonalLoop=1;jettySize=auto;html=1;exitX=0;exitY=0.5;exitDx=0;exitDy=0;entryX=0.5;entryY=0;entryDx=0;entryDy=0;" parent="WIyWlLk6GJQsqaUBKTNV-1" source="D-wpHk_Uut0GPWnDHKZU-4" target="c-h7-R5tRwGiWkRV6ZdH-6" edge="1">
          <mxGeometry relative="1" as="geometry">
            <mxPoint x="230" y="410" as="targetPoint" />
          </mxGeometry>
        </mxCell>
        <mxCell id="D-wpHk_Uut0GPWnDHKZU-4" value="direct user to userchoiice" style="rhombus;whiteSpace=wrap;html=1;" parent="WIyWlLk6GJQsqaUBKTNV-1" vertex="1">
          <mxGeometry x="330" y="190" width="120" height="80" as="geometry" />
        </mxCell>
        <mxCell id="D-wpHk_Uut0GPWnDHKZU-14" value="exit program" style="rounded=1;whiteSpace=wrap;html=1;" parent="WIyWlLk6GJQsqaUBKTNV-1" vertex="1">
          <mxGeometry x="570" y="320" width="120" height="50" as="geometry" />
        </mxCell>
        <mxCell id="c-h7-R5tRwGiWkRV6ZdH-8" style="edgeStyle=orthogonalEdgeStyle;rounded=0;orthogonalLoop=1;jettySize=auto;html=1;entryX=0;entryY=0.375;entryDx=0;entryDy=0;entryPerimeter=0;" edge="1" parent="WIyWlLk6GJQsqaUBKTNV-1" source="D-wpHk_Uut0GPWnDHKZU-15" target="D-wpHk_Uut0GPWnDHKZU-0">
          <mxGeometry relative="1" as="geometry">
            <mxPoint x="70" y="500" as="targetPoint" />
            <Array as="points">
              <mxPoint x="40" y="345" />
              <mxPoint x="40" y="80" />
            </Array>
          </mxGeometry>
        </mxCell>
        <mxCell id="D-wpHk_Uut0GPWnDHKZU-15" value="&lt;div&gt;Guide user through POS(Point of Sale) software&lt;/div&gt;&lt;div&gt;&lt;br&gt;&lt;/div&gt;&lt;div&gt;Return to main menu if finished.&lt;/div&gt;" style="rounded=1;whiteSpace=wrap;html=1;" parent="WIyWlLk6GJQsqaUBKTNV-1" vertex="1">
          <mxGeometry x="50" y="270" width="130" height="150" as="geometry" />
        </mxCell>
        <mxCell id="D-wpHk_Uut0GPWnDHKZU-16" value="If 1" style="text;html=1;align=center;verticalAlign=middle;whiteSpace=wrap;rounded=0;" parent="WIyWlLk6GJQsqaUBKTNV-1" vertex="1">
          <mxGeometry x="160" y="170" width="60" height="30" as="geometry" />
        </mxCell>
        <mxCell id="D-wpHk_Uut0GPWnDHKZU-17" value="If 2" style="text;html=1;align=center;verticalAlign=middle;whiteSpace=wrap;rounded=0;" parent="WIyWlLk6GJQsqaUBKTNV-1" vertex="1">
          <mxGeometry x="280" y="250" width="60" height="30" as="geometry" />
        </mxCell>
        <mxCell id="D-wpHk_Uut0GPWnDHKZU-19" value="If 3" style="text;html=1;align=center;verticalAlign=middle;whiteSpace=wrap;rounded=0;" parent="WIyWlLk6GJQsqaUBKTNV-1" vertex="1">
          <mxGeometry x="480" y="250" width="60" height="30" as="geometry" />
        </mxCell>
        <mxCell id="D-wpHk_Uut0GPWnDHKZU-21" value="if 4" style="text;html=1;align=center;verticalAlign=middle;whiteSpace=wrap;rounded=0;" parent="WIyWlLk6GJQsqaUBKTNV-1" vertex="1">
          <mxGeometry x="630" y="240" width="60" height="30" as="geometry" />
        </mxCell>
        <mxCell id="c-h7-R5tRwGiWkRV6ZdH-11" style="edgeStyle=orthogonalEdgeStyle;rounded=0;orthogonalLoop=1;jettySize=auto;html=1;" edge="1" parent="WIyWlLk6GJQsqaUBKTNV-1" source="c-h7-R5tRwGiWkRV6ZdH-6" target="D-wpHk_Uut0GPWnDHKZU-0">
          <mxGeometry relative="1" as="geometry">
            <mxPoint x="260" y="100" as="targetPoint" />
            <Array as="points">
              <mxPoint x="10" y="535" />
              <mxPoint x="10" y="100" />
            </Array>
          </mxGeometry>
        </mxCell>
        <mxCell id="c-h7-R5tRwGiWkRV6ZdH-6" value="ask user for desired operations on inventory. If user chooses to exit return to main menu." style="rhombus;whiteSpace=wrap;html=1;" vertex="1" parent="WIyWlLk6GJQsqaUBKTNV-1">
          <mxGeometry x="30" y="440" width="300" height="190" as="geometry" />
        </mxCell>
        <mxCell id="c-h7-R5tRwGiWkRV6ZdH-10" style="edgeStyle=orthogonalEdgeStyle;rounded=0;orthogonalLoop=1;jettySize=auto;html=1;entryX=1;entryY=0.5;entryDx=0;entryDy=0;exitX=1;exitY=0.5;exitDx=0;exitDy=0;" edge="1" parent="WIyWlLk6GJQsqaUBKTNV-1" source="c-h7-R5tRwGiWkRV6ZdH-7" target="D-wpHk_Uut0GPWnDHKZU-0">
          <mxGeometry relative="1" as="geometry">
            <mxPoint x="720" y="80" as="targetPoint" />
            <Array as="points">
              <mxPoint x="560" y="500" />
              <mxPoint x="780" y="500" />
              <mxPoint x="780" y="260" />
              <mxPoint x="790" y="260" />
              <mxPoint x="790" y="90" />
            </Array>
          </mxGeometry>
        </mxCell>
        <mxCell id="c-h7-R5tRwGiWkRV6ZdH-7" value="ask user for specific desired report on inventory. If user chooses to exit return to main menu." style="rhombus;whiteSpace=wrap;html=1;" vertex="1" parent="WIyWlLk6GJQsqaUBKTNV-1">
          <mxGeometry x="400" y="470" width="240" height="190" as="geometry" />
        </mxCell>
      </root>
    </mxGraphModel>
  </diagram>
</mxfile>
